<svg xmlns="http://www.w3.org/2000/svg" width="256" height="256" viewBox="0 0 100 100"><rect width="100" height="100" rx="50" fill="#7d6ee7"></rect><path d="M14.86 69.48L14.86 30.52L33.15 30.52L33.15 35.66L20.74 35.66L20.74 46.69L30.39 46.69L30.39 51.88L20.74 51.88L20.74 69.48L14.86 69.48ZM39.66 69.48L39.66 30.52L45.65 30.52L45.65 64.18L56.84 64.18L56.84 69.48L39.66 69.48ZM62.56 69.48L62.56 30.52L71.15 30.52Q78.41 30.52 81.77 33.62Q85.14 36.72 85.14 42.13L85.14 42.13Q85.14 48.38 81.48 51.72Q77.83 55.06 70.62 55.06L70.62 55.06L68.55 55.06L68.55 69.48L62.56 69.48ZM68.55 49.81L70.78 49.81Q75.44 49.81 77.30 47.75Q79.15 45.68 79.15 42.77L79.15 42.77Q79.15 39.64 77.35 37.68Q75.55 35.72 71.31 35.72L71.31 35.72L68.55 35.72L68.55 49.81Z" fill="#fff"></path></svg>